<svg width="1000" height="1000" viewBox="0 0 1000 1000" fill="none" xmlns="http://www.w3.org/2000/svg">
<rect width="1000" height="1000" rx="100" fill="black"/>
<path d="M569.061 220.009L707.533 299.956L707.585 139.973L569.061 220.009Z" fill="#FFFDE7"/>
<path d="M569.062 220.009L707.533 299.956L569.01 379.991L569.062 220.009Z" fill="#FFFDE7"/>
<path d="M776.871 420.053L776.871 579.947L915.445 500L776.871 420.053Z" fill="#FFFDE7"/>
<path d="M776.871 420.053L776.871 579.947L638.297 500L776.871 420.053Z" fill="#FFFDE7"/>
<path d="M707.533 700.044L569.061 779.991L707.584 860.027L707.533 700.044Z" fill="#FFFDE7"/>
<path d="M707.533 700.044L569.061 779.991L569.01 620.009L707.533 700.044Z" fill="#FFFDE7"/>
<path d="M430.384 779.991L291.913 700.044L291.861 860.027L430.384 779.991Z" fill="#FFFDE7"/>
<path d="M430.385 779.991L291.913 700.044L430.436 620.009L430.385 779.991Z" fill="#FFFDE7"/>
<path d="M222.574 579.947L222.574 420.053L84 500L222.574 579.947Z" fill="#FFFDE7"/>
<path d="M222.574 579.947L222.574 420.053L361.148 500L222.574 579.947Z" fill="#FFFDE7"/>
<path d="M291.913 299.956L430.384 220.009L291.861 139.973L291.913 299.956Z" fill="#FFFDE7"/>
<path d="M291.913 299.956L430.384 220.009L430.436 379.991L291.913 299.956Z" fill="#FFFDE7"/>
</svg>
