<svg xmlns="http://www.w3.org/2000/svg" width="577" height="555" viewBox="0 0 577 555" preserveAspectRatio="xMidYMid meet">
    <!-- Black background -->
    <rect width="577" height="555" fill="black"/>
    
    <!-- White logo -->
    <g fill="white">
        <path d="M336.339 83.2135L432.354 138.648C432.37 95.648 432.38 70.7173 432.39 27.7173L336.339 83.2135ZM336.339 83.2135L432.354 138.648L336.303 194.144L336.339 83.2135Z" />
        <path d="M480.433 221.923L480.433 332.792C512.433 315.075 544.52 295.358 576.52 277.358L480.433 221.923ZM480.433 221.923L480.433 332.792L384.346 277.358L480.433 221.923Z" />
        <path d="M432.354 416.067L336.339 471.502C368.365 489.25 400.39 509.998 432.39 526.998L432.354 416.067ZM432.354 416.067L336.339 471.502L336.303 360.571L432.354 416.067Z" />
        <path d="M240.181 471.502L144.165 416.067C144.155 459.533 144.14 483.998 144.13 526.998L240.181 471.502ZM240.181 471.502L144.166 416.067L240.217 360.571L240.181 471.502Z" />
        <path d="M96.0866 332.792L96.0866 221.923C64.0433 239.64 32.0 259.358 0 277.358L96.0866 332.792ZM96.0867 332.792L96.0867 221.923L192.173 277.358L96.0867 332.792Z" />
        <path d="M144.165 138.648L240.181 83.2134C208.155 65.4654 176.13 45.7173 144.13 27.7173L144.165 138.648ZM144.165 138.648L240.181 83.2135L240.216 194.144L144.165 138.648Z" />
    </g>
</svg>