<svg width="832" height="800" viewBox="0 0 832 800" fill="none" xmlns="http://www.w3.org/2000/svg">
<path d="M485.061 120.009L623.533 199.956L623.585 39.9734L485.061 120.009Z" fill="black"/>
<path d="M485.062 120.009L623.533 199.956L485.01 279.991L485.062 120.009Z" fill="black"/>
<path d="M692.871 320.053L692.871 479.947L831.445 400L692.871 320.053Z" fill="black"/>
<path d="M692.871 320.053L692.871 479.947L554.297 400L692.871 320.053Z" fill="black"/>
<path d="M623.533 600.044L485.061 679.991L623.584 760.027L623.533 600.044Z" fill="black"/>
<path d="M623.533 600.044L485.061 679.991L485.01 520.009L623.533 600.044Z" fill="black"/>
<path d="M346.384 679.991L207.913 600.044L207.861 760.027L346.384 679.991Z" fill="black"/>
<path d="M346.385 679.991L207.913 600.044L346.436 520.009L346.385 679.991Z" fill="black"/>
<path d="M138.574 479.947L138.574 320.053L-6.21331e-07 400L138.574 479.947Z" fill="black"/>
<path d="M138.574 479.947L138.574 320.053L277.149 400L138.574 479.947Z" fill="black"/>
<path d="M207.913 199.956L346.384 120.009L207.861 39.9733L207.913 199.956Z" fill="black"/>
<path d="M207.913 199.956L346.384 120.009L346.436 279.991L207.913 199.956Z" fill="black"/>
</svg>
