<svg width="1375" height="1350" viewBox="0 0 1375 1350" fill="none" xmlns="http://www.w3.org/2000/svg">
<path d="M1375 517H0V555H1375V517Z" fill="#FFFDE7" fill-opacity="0.7"/>
<path d="M1375 795H0V833H1375V795Z" fill="#FFFDE7" fill-opacity="0.7"/>
<path d="M1135.17 139.605L447.673 1330.39L480.582 1349.39L1168.08 158.605L1135.17 139.605Z" fill="#FFFDE7" fill-opacity="0.7"/>
<path d="M894.418 0.608402L206.918 1191.39L239.827 1210.39L927.327 19.6084L894.418 0.608402Z" fill="#FFFDE7" fill-opacity="0.7"/>
<path d="M240.827 139.606L928.327 1330.39L895.418 1349.39L207.918 158.606L240.827 139.606Z" fill="#FFFDE7" fill-opacity="0.7"/>
<path d="M481.58 0.608975L1169.08 1191.39L1136.17 1210.39L448.671 19.609L481.58 0.608975Z" fill="#FFFDE7" fill-opacity="0.7"/>
<path d="M447 813.25H927.644L687.322 397L447 813.25ZM687.322 952L927.644 535.75H447L687.322 952Z" stroke="#FFFDE7" stroke-width="38" stroke-linejoin="round"/>
<path d="M687.5 727.321C716.672 727.321 740.32 703.672 740.32 674.501C740.32 645.329 716.672 621.681 687.5 621.681C658.329 621.681 634.68 645.329 634.68 674.501C634.68 703.672 658.329 727.321 687.5 727.321Z" fill="#FFFF53"/>
</svg>
